# xmcd
#
# Track frame offsets:
#	182
#	26815
#	58707
#	80692
#	106685
#	133220
#	160735
#	187677
#	215992
#	242775
#	271875
#	298282
#
# Disc length: 4258 seconds
#
# Revision: 1
# Processed by: cddbd v1.5.1PL2 Copyright (c) Steve Scherf et al.
# Submitted via: EasyCDDAExtractor 8.2.3.1
#
DISCID=b310a00c
DTITLE=Various Artist - - Single
DYEAR=1995
DGENRE=Happy Hardcore
TTITLE0=Red Alert and Mike Slammer - In Effect (Sy and Unknown Remix)
TTITLE1=Red Alert and Mike Slammer - Just Wanna Hold U Tight
TTITLE2=D-Force (Red Alert and Mike Slammer) - Ruff
TTITLE3=Red Alert and Mike Slammer - Original Bad Boy (DJ Slam Remix)
TTITLE4=Red Alert and Mike Slammer - Ganja Man
TTITLE5=Red Alert and Mike Slammer - Ruffer
TTITLE6=Midas - Imperial March (Remix)
TTITLE7=Red Alert and Mike Slammer - Don't Need Your Love
TTITLE8=Red Alert and Mike Slammer - Let's do it
TTITLE9=Happy Tunes - Rushin' On Pink Champagne
TTITLE10=Red Alert and Mike Slammer - F*ckin' Hardcore
TTITLE11=Red Alert and MIke Slammer - Feel so Real (Remix)
EXTD=
EXTT0=
EXTT1=
EXTT2=
EXTT3=
EXTT4=
EXTT5=
EXTT6=
EXTT7=
EXTT8=
EXTT9=
EXTT10=
EXTT11=
PLAYORDER=
